<svg xmlns="http://www.w3.org/2000/svg" viewBox="0 0 520 280" role="img" aria-label="Language learner reading">
  <defs>
    <linearGradient id="bg" x1="0" x2="1" y1="0" y2="1">
      <stop offset="0" stop-color="#eef2ff"/>
      <stop offset="1" stop-color="#dbeafe"/>
    </linearGradient>
    <linearGradient id="hoodie" x1="0" x2="1">
      <stop offset="0" stop-color="#315cf6"/>
      <stop offset="1" stop-color="#4f46e5"/>
    </linearGradient>
  </defs>
  <rect width="520" height="280" rx="28" fill="url(#bg)"/>
  <circle cx="408" cy="88" r="60" fill="#c7d2fe" opacity=".75"/>
  <circle cx="105" cy="205" r="42" fill="#bfdbfe" opacity=".55"/>
  <path d="M356 226h100" stroke="#93c5fd" stroke-width="14" stroke-linecap="round"/>
  <path d="M383 223c-6-28 3-58 28-76 26 20 36 48 31 76z" fill="url(#hoodie)"/>
  <path d="M387 141c2-24 17-43 39-43 20 0 34 16 34 36 0 15-7 29-21 39-18 13-45-4-52-32z" fill="#172554"/>
  <circle cx="419" cy="132" r="31" fill="#ffd8bd"/>
  <path d="M391 122c30 3 50-7 58-23 14 12 18 31 5 48-7-22-27-19-63-25z" fill="#1e1b4b"/>
  <path d="M410 140c8 7 18 7 26 0" fill="none" stroke="#8b5e4a" stroke-width="3" stroke-linecap="round"/>
  <path d="M360 174c-45-20-90-18-132 5v62c43-20 88-22 132-5z" fill="#fff" stroke="#bfdbfe" stroke-width="4"/>
  <path d="M360 174c39-24 81-27 126-8v62c-44-16-86-14-126 8z" fill="#f8fafc" stroke="#bfdbfe" stroke-width="4"/>
  <path d="M247 195c24-9 53-10 85-2M247 216c27-8 56-9 86-1M384 190c27-8 54-8 80 0M384 211c25-7 50-8 75-2" stroke="#94a3b8" stroke-width="4" stroke-linecap="round"/>
  <rect x="48" y="56" width="236" height="118" rx="18" fill="#fff" opacity=".9"/>
  <text x="72" y="101" fill="#111827" font-family="Arial, sans-serif" font-size="28" font-weight="700">每天进步一点点</text>
  <text x="72" y="132" fill="#475569" font-family="Arial, sans-serif" font-size="17">Learning is a journey</text>
  <path d="M74 154h104" stroke="#315cf6" stroke-width="8" stroke-linecap="round"/>
</svg>
